:version 1.10
:name ASF
:units
  mass 1
  length 1
  angle deg
:documentation
  ASF file generated by Kaydara
:root
  axis xyz
  order  tx ty tz rx ry rz
  position 0 0 0
  orientation 0 0 0
:bonedata
  begin
    id 1
    name RightUpLegDummy
    direction -0.718183 -0.695806 0.00816078
    length 4.904
    axis 0 0 0 xyz
  end
  begin
    id 2
    name RightUpLeg
    direction 3.53373e-006 -0.995788 0.0916898
    length 17.4976
    axis -3.49089 -0.000906625 0.000286804 xyz
    dof rx ry rz
  end
  begin
    id 3
    name RightLeg
    direction 0.00371092 -0.995096 -0.0988419
    length 16.5821
    axis 3.68512 0.0193738 -0.131023 xyz
    dof rx ry rz
  end
  begin
    id 4
    name RightFoot
    direction 0.00079151 -0.46099 0.887405
    length 3.77069
    axis 4.81691e-005 -0.120479 -0.188788 xyz
    dof rx ry rz
  end
  begin
    id 5
    name RightToes
    direction 0 0 0
    length 0
    axis 0 0 0 xyz
    dof rx ry rz
  end
  begin
    id 6
    name SpineDummy
    direction 8.3039e-015 1 4.57515e-016
    length 4.6813
    axis 0 0 0 xyz
  end
  begin
    id 7
    name Spine
    direction -3.15643e-008 0.999988 0.00495137
    length 10.1015
    axis -0.001389 0.000121418 2.40972e-006 xyz
    dof rx ry rz
  end
  begin
    id 8
    name Spine1
    direction 0 0 0
    length 0
    axis -0.001389 0.000121451 1.30017e-006 xyz
    dof rx ry rz
  end
  begin
    id 9
    name HEadDummy
    direction -1.99912e-008 0.999999 0.00127422
    length 3.43865
    axis -0.001389 0.000121451 1.30017e-006 xyz
  end
  begin
    id 10
    name HEad
    direction 0 0 0
    length 0
    axis 0 0 0 xyz
    dof rx ry rz
  end
  begin
    id 11
    name LeftShoulder1Dummy
    direction 0.998891 -0.0402509 -0.0244456
    length 3.5433
    axis -0.001389 0.000121451 1.30017e-006 xyz
  end
  begin
    id 12
    name LeftShoulder1
    direction 0.99951 -0.000327763 0.0313091
    length 4.05031
    axis -0.001389 0.000121451 1.30017e-006 xyz
    dof rx ry rz
  end
  begin
    id 13
    name LeftArm
    direction 0.998561 -0.00100056 -0.0536182
    length 10.3537
    axis -23.1894 0.134784 0.967509 xyz
    dof rx ry rz
  end
  begin
    id 14
    name LeftForeArm
    direction 0.998903 0.00866432 0.046012
    length 8.70632
    axis -9.91835 -0.06569 -0.177794 xyz
    dof rx ry rz
  end
  begin
    id 15
    name LeftHand
    direction 0 0 0
    length 0
    axis 0 0 0 xyz
    dof rx ry rz
  end
  begin
    id 16
    name RightShoulderDummy
    direction -0.998891 -0.0402509 -0.0244414
    length 3.5433
    axis -0.001389 0.000121451 1.30017e-006 xyz
  end
  begin
    id 17
    name RightShoulder
    direction -0.99951 -0.000327807 0.0313133
    length 4.05031
    axis 0.215806 0.000203643 -0.0068026 xyz
    dof rx ry rz
  end
  begin
    id 18
    name RightArm
    direction -0.998573 -0.000999564 -0.053403
    length 10.3947
    axis -23.2009 -0.134239 -0.964101 xyz
    dof rx ry rz
  end
  begin
    id 19
    name RightForeArm
    direction -0.998898 0.00868028 0.0461306
    length 8.68355
    axis -9.92322 0.0658061 0.178868 xyz
    dof rx ry rz
  end
  begin
    id 20
    name RightHand
    direction 0 0 0
    length 0
    axis 0 0 0 xyz
    dof rx ry rz
  end
  begin
    id 21
    name LeftUpLegDummy
    direction 0.718183 -0.695806 0.00816078
    length 4.904
    axis 0 0 0 xyz
  end
  begin
    id 22
    name LeftUpLeg
    direction -6.81752e-006 -0.995793 0.0916337
    length 17.4976
    axis -3.48766 0.00143442 -0.000524262 xyz
    dof rx ry rz
  end
  begin
    id 23
    name LeftLeg
    direction -0.00601358 -0.995091 -0.0987824
    length 16.5821
    axis 3.68178 -0.00654042 -0.000285133 xyz
    dof rx ry rz
  end
  begin
    id 24
    name LeftFoot
    direction -0.00417578 -0.460984 0.887399
    length 3.77069
    axis 1.87233e-006 4.66016e-005 -8.6538e-006 xyz
    dof rx ry rz
  end
  begin
    id 25
    name LeftToes
    direction 0 0 0
    length 0
    axis 0 0 0 xyz
    dof rx ry rz
  end
:hierarchy
  begin
    root RightUpLegDummy SpineDummy LeftUpLegDummy
    RightUpLegDummy RightUpLeg
    RightUpLeg RightLeg
    RightLeg RightFoot
    RightFoot RightToes
    SpineDummy Spine
    Spine Spine1
    Spine1 HEadDummy LeftShoulder1Dummy RightShoulderDummy
    HEadDummy HEad
    LeftShoulder1Dummy LeftShoulder1
    LeftShoulder1 LeftArm
    LeftArm LeftForeArm
    LeftForeArm LeftHand
    RightShoulderDummy RightShoulder
    RightShoulder RightArm
    RightArm RightForeArm
    RightForeArm RightHand
    LeftUpLegDummy LeftUpLeg
    LeftUpLeg LeftLeg
    LeftLeg LeftFoot
    LeftFoot LeftToes
  end

:SAMPLES-PER-SECOND 30
:FULLY-SPECIFIED
:DEGREES
49
root  34.5702 40.2706 10.0947 40.0004 87.512 46.2342
RightUpLeg  -0.197682 -13.6401 -11.8768
RightLeg  11.4125 -3.76308 1.04011
RightFoot  -1.5756 -0.289729 3.30812
RightToes  0.000481921 0.542163 -0.142578
Spine  -0.483035 -0.297468 -0.411217
Spine1  18.5343 -0.386404 0.193598
HEad  18.6771 2.38257 -0.650394
LeftShoulder1  8.07042 -14.0874 -39.6486
LeftArm  -6.80621 -6.06216 -38.7231
LeftForeArm  -169.082 -50.5701 -169.192
LeftHand  -0.25398 0.0180481 5.50724
RightShoulder  5.40698 10.2141 33.4683
RightArm  -1.74661 6.33304 48.4494
RightForeArm  176.019 54.3023 166.507
RightHand  -0.671513 2.39068 -10.2452
LeftUpLeg  3.90999 8.27659 7.64724
LeftLeg  6.19785 14.4987 -2.60954
LeftFoot  -0.357354 0.458649 -4.7754
LeftToes  1.06244e-005 4.65869e-005 -8.65518e-006
50
root  34.5678 40.2681 10.097 41.7489 87.5651 47.9808
RightUpLeg  -0.210964 -13.6489 -11.88
RightLeg  11.4694 -3.83195 0.993027
RightFoot  -1.62797 -0.290874 3.32589
RightToes  0.000481921 0.542163 -0.142578
Spine  -0.493566 -0.330658 -0.506099
Spine1  18.5357 -0.44969 0.274367
HEad  18.6744 2.36116 -0.621032
LeftShoulder1  8.07573 -14.0927 -39.664
LeftArm  -6.78379 -6.11623 -38.7141
LeftForeArm  -168.99 -50.5652 -169.2
LeftHand  -0.25398 0.0180481 5.50724
RightShoulder  5.41153 10.2177 33.491
RightArm  -1.73186 6.34085 48.4231
RightForeArm  176.374 54.4179 166.479
RightHand  -0.667327 2.52813 -10.0187
LeftUpLeg  3.8657 8.26568 7.62503
LeftLeg  6.23521 14.4139 -2.5959
LeftFoot  -0.370577 0.45767 -4.78427
LeftToes  1.06244e-005 4.65869e-005 -8.65518e-006
51
root  34.5687 40.2648 10.099 43.6676 87.6352 49.9509
RightUpLeg  -0.151352 -13.6495 -11.8907
RightLeg  11.5178 -3.91602 0.945329
RightFoot  -1.68096 -0.292169 3.34599
RightToes  0.000481921 0.542163 -0.142578
Spine  -0.440239 -0.362731 -0.561786
Spine1  18.5313 -0.50883 0.343686
HEad  18.646 2.30066 -0.593644
LeftShoulder1  8.09277 -14.1028 -39.7308
LeftArm  -6.75832 -6.16909 -38.6572
LeftForeArm  -169.037 -50.5724 -169.194
LeftHand  -0.25398 0.0180481 5.50724
RightShoulder  5.41244 10.2227 33.4644
RightArm  -1.78132 6.3043 48.442
RightForeArm  176.416 54.4229 166.48
RightHand  -0.656584 2.47272 -9.9266
LeftUpLeg  3.88009 8.2792 7.62815
LeftLeg  6.28469 14.2891 -2.58591
LeftFoot  -0.403058 0.456274 -4.78642
LeftToes  1.06244e-005 4.65869e-005 -8.65518e-006
52
root  34.571 40.2623 10.1006 44.6493 87.6562 51.0054
RightUpLeg  -0.0840871 -13.6606 -11.9135
RightLeg  11.5704 -3.92806 0.910865
RightFoot  -1.71576 -0.291589 3.33698
RightToes  0.000481921 0.542163 -0.142578
Spine  -0.339916 -0.362748 -0.556379
Spine1  18.4902 -0.507186 0.338351
HEad  18.6324 2.27547 -0.544327
LeftShoulder1  8.1055 -14.1145 -39.7705
LeftArm  -6.7526 -6.17151 -38.6067
LeftForeArm  -169.183 -50.5887 -169.178
LeftHand  -0.25398 0.0180481 5.50724
RightShoulder  5.4115 10.2302 33.435
RightArm  -1.79228 6.22891 48.4129
RightForeArm  176.29 54.2913 166.534
RightHand  -0.636421 2.23208 -9.91075
LeftUpLeg  3.94638 8.30026 7.6341
LeftLeg  6.31167 14.2256 -2.58838
LeftFoot  -0.438643 0.455224 -4.79211
LeftToes  1.06244e-005 4.65869e-005 -8.65518e-006
53
root  34.5736 40.2619 10.1037 44.821 87.6411 51.2037
RightUpLeg  -0.0706773 -13.6655 -11.9268
RightLeg  11.6071 -3.90944 0.894546
RightFoot  -1.73619 -0.291322 3.33284
RightToes  0.000481921 0.542163 -0.142578
Spine  -0.312097 -0.337359 -0.577964
Spine1  18.4724 -0.491185 0.376328
HEad  18.6427 2.33059 -0.549924
LeftShoulder1  8.11644 -14.1207 -39.8139
LeftArm  -6.78372 -6.14361 -38.5761
LeftForeArm  -169.214 -50.5876 -169.176
LeftHand  -0.25398 0.0180481 5.50724
RightShoulder  5.4094 10.2367 33.4246
RightArm  -1.69142 6.24302 48.3404
RightForeArm  176.251 54.2858 166.533
RightHand  -0.63043 2.12703 -9.94632
LeftUpLeg  3.98143 8.29765 7.62013
LeftLeg  6.3142 14.2318 -2.57881
LeftFoot  -0.458548 0.455142 -4.80942
LeftToes  1.06244e-005 4.65869e-005 -8.65518e-006
54
root  34.5782 40.2605 10.1074 44.9307 87.6329 51.308
RightUpLeg  -0.0829323 -13.6555 -11.9266
RightLeg  11.638 -3.91317 0.875862
RightFoot  -1.78523 -0.296622 3.41508
RightToes  0.000481921 0.542163 -0.142578
Spine  -0.357306 -0.314775 -0.602566
Spine1  18.5286 -0.486966 0.439448
HEad  18.6175 2.38482 -0.633282
LeftShoulder1  8.12909 -14.1274 -39.8653
LeftArm  -6.80131 -6.1277 -38.5652
LeftForeArm  -169.186 -50.5604 -169.188
LeftHand  -0.25398 0.0180481 5.50724
RightShoulder  5.40134 10.2335 33.3741
RightArm  -1.68573 6.34593 48.3754
RightForeArm  176.302 54.4341 166.466
RightHand  -0.643524 2.25387 -9.99209
LeftUpLeg  3.97813 8.27751 7.59634
LeftLeg  6.32812 14.2378 -2.54363
LeftFoot  -0.488179 0.4562 -4.83943
LeftToes  1.06244e-005 4.65869e-005 -8.65518e-006
55
root  34.5876 40.2543 10.1081 44.7001 87.6014 51.1193
RightUpLeg  -0.0723865 -13.6439 -11.9386
RightLeg  11.7272 -3.88088 0.816395
RightFoot  -1.90101 -0.306931 3.57506
RightToes  0.000481921 0.542163 -0.142578
Spine  -0.306229 -0.288187 -0.501125
Spine1  18.5455 -0.417909 0.318795
HEad  18.5441 2.34148 -0.651564
LeftShoulder1  8.14261 -14.157 -39.8646
LeftArm  -6.74767 -6.10345 -38.5448
LeftForeArm  -169.271 -50.5289 -169.195
LeftHand  -0.25398 0.0180481 5.50724
RightShoulder  5.38211 10.2047 33.3169
RightArm  -1.84381 6.33819 48.4356
RightForeArm  176.378 54.4184 166.479
RightHand  -0.64198 2.32751 -9.87995
LeftUpLeg  4.03937 8.2615 7.57805
LeftLeg  6.35059 14.2428 -2.5187
LeftFoot  -0.560333 0.457589 -4.86787
LeftToes  1.06244e-005 4.65869e-005 -8.65518e-006
56
root  34.5995 40.2443 10.1096 44.8177 87.5532 51.335
RightUpLeg  -0.0506888 -13.6489 -11.9669
RightLeg  11.9199 -3.82142 0.696775
RightFoot  -2.08007 -0.313968 3.70158
RightToes  0.000481921 0.542163 -0.142578
Spine  -0.0810708 -0.267453 -0.406874
Spine1  18.3901 -0.329443 0.123759
HEad  18.4926 2.28998 -0.540631
LeftShoulder1  8.16554 -14.2084 -39.8603
LeftArm  -6.69703 -6.01977 -38.4474
LeftForeArm  -169.298 -50.4736 -169.214
LeftHand  -0.25398 0.0180481 5.50724
RightShoulder  5.3742 10.1542 33.404
RightArm  -1.81834 6.20155 48.2416
RightForeArm  176.477 54.2817 166.553
RightHand  -0.620754 2.25605 -9.64543
LeftUpLeg  4.15418 8.2574 7.55796
LeftLeg  6.3957 14.1928 -2.50593
LeftFoot  -0.657189 0.458695 -4.88359
LeftToes  1.06244e-005 4.65869e-005 -8.65518e-006
57
root  34.6034 40.2328 10.1262 50.4034 87.6789 56.9908
RightUpLeg  -0.0397452 -13.7236 -11.9878
RightLeg  12.204 -3.96993 0.533613
RightFoot  -2.31151 -0.311865 3.74754
RightToes  0.000481921 0.542163 -0.142578
Spine  0.203686 -0.359653 -0.7391
Spine1  18.1484 -0.507742 0.374789
HEad  18.439 2.42211 -0.489446
LeftShoulder1  8.19561 -14.2326 -39.9615
LeftArm  -6.75481 -5.91632 -38.2839
LeftForeArm  -169.103 -50.3404 -169.279
LeftHand  -0.25398 0.0180481 5.50724
RightShoulder  5.38097 10.1168 33.5607
RightArm  -1.50364 6.176 47.9603
RightForeArm  176.383 54.4603 166.459
RightHand  -0.625538 2.21636 -9.76246
LeftUpLeg  4.07719 8.32041 7.53285
LeftLeg  6.61534 13.7399 -2.41388
LeftFoot  -0.729833 0.462448 -4.93097
LeftToes  1.06244e-005 4.65869e-005 -8.65518e-006
58
root  34.5903 40.2197 10.1708 73.903 88.0035 80.4502
RightUpLeg  -0.00708438 -13.9791 -12.0087
RightLeg  12.5331 -4.60156 0.359832
RightFoot  -2.5981 -0.307161 3.78413
RightToes  0.000481921 0.542163 -0.142578
Spine  0.497861 -0.678267 -1.6937
Spine1  17.926 -1.16133 1.34399
HEad  18.2113 2.67641 -0.639463
LeftShoulder1  8.20508 -14.1911 -40.1146
LeftArm  -6.78578 -5.92577 -38.183
LeftForeArm  -169.015 -50.1916 -169.341
LeftHand  -0.25398 0.0180481 5.50724
RightShoulder  5.35601 10.0906 33.4539
RightArm  -1.36796 6.19682 48.0802
RightForeArm  175.858 54.854 166.228
RightHand  -0.656052 2.05381 -10.4391
LeftUpLeg  3.56916 8.5696 7.51249
LeftLeg  7.11895 12.4294 -2.19436
LeftFoot  -0.718577 0.476193 -5.07486
LeftToes  1.06244e-005 4.65869e-005 -8.65518e-006
